# xmcd
#
# Track frame offsets: 
#        150
#        22755
#        34595
#        50518
#        76710
#        95850
#        110010
#        128378
#        148998
#        163185
#        170463
#        185803
#        209685
#        232110
#        254310
#        272175
#        297270
#        314775
#        337548
#
# Disc length: 4704 seconds
#
# Revision: 0
# Processed by: cddbd v1.4PL0 Copyright (c) Steve Scherf et al.
# Submitted via: ExactAudioCopy v0.90b4
#
DISCID=1b125e13
DTITLE=Muddy Waters - Collaboration [1995] and I'm Ready [1978]
DYEAR=1900
DGENRE=Blues
TTITLE0=Long Distance Call
TTITLE1=Baby Please Don't Go
TTITLE2=I'm Your Hoochie Coochie Man
TTITLE3=Blues Before Sunrise
TTITLE4=Rolling Stone
TTITLE5=I Can't Be Satisfied
TTITLE6=Blow Wind Blow
TTITLE7=I Feel Like Going Home
TTITLE8=Walking Thru The Park
TTITLE9=Lovin' Stuff (Encore)
TTITLE10=I'm Ready
TTITLE11=33 Years
TTITLE12=Who Do You Trust
TTITLE13=Copper Brown
TTITLE14=I'm Your Hoochie Coochie Man
TTITLE15=Mamie
TTITLE16=Rock Me
TTITLE17=Screamin' And Cryin'
TTITLE18=Good Morning Little School Girl
EXTD=title 1 =01-10\ntitle 2 =11-19
EXTT0=
EXTT1=
EXTT2=
EXTT3=
EXTT4=
EXTT5=
EXTT6=
EXTT7=
EXTT8=
EXTT9=
EXTT10=
EXTT11=
EXTT12=
EXTT13=
EXTT14=
EXTT15=
EXTT16=
EXTT17=
EXTT18=
PLAYORDER=
